<svg width="9" height="9" viewBox="0 0 9 9" fill="none" xmlns="http://www.w3.org/2000/svg">
<path d="M8.78015 3.81067L5.03016 0.210714C4.88952 0.0757912 4.69883 0 4.5 0C4.30117 0 4.11048 0.0757912 3.96984 0.210714L0.219848 3.81067C0.149866 3.87735 0.0943914 3.95672 0.05665 4.04417C0.0189087 4.13162 -0.000346245 4.2254 4.71256e-06 4.32006V8.64001C4.71256e-06 8.73548 0.0395136 8.82705 0.10984 8.89456C0.180166 8.96207 0.275548 9 0.375004 9H3.375C3.47446 9 3.56984 8.96207 3.64017 8.89456C3.71049 8.82705 3.75 8.73548 3.75 8.64001V6.12004H5.25V8.64001C5.25 8.73548 5.28951 8.82705 5.35983 8.89456C5.43016 8.96207 5.52554 9 5.625 9H8.625C8.72445 9 8.81984 8.96207 8.89016 8.89456C8.96049 8.82705 9 8.73548 9 8.64001V4.32006C9.00035 4.2254 8.98109 4.13162 8.94335 4.04417C8.90561 3.95672 8.85013 3.87735 8.78015 3.81067ZM8.25 8.28001H6V5.76004C6 5.66457 5.96049 5.573 5.89016 5.50549C5.81984 5.43797 5.72446 5.40005 5.625 5.40005H3.375C3.27555 5.40005 3.18016 5.43797 3.10984 5.50549C3.03951 5.573 3 5.66457 3 5.76004V8.28001H0.750004V4.32006L4.5 0.720107L8.25 4.32006V8.28001Z" fill="white"/>
</svg>
