<svg width="26" height="28" viewBox="0 0 26 28" fill="none" xmlns="http://www.w3.org/2000/svg">
<path d="M21.6667 28C20.463 28 19.4398 27.5917 18.5972 26.775C17.7546 25.9583 17.3333 24.9667 17.3333 23.8C17.3333 23.66 17.3694 23.3333 17.4417 22.82L7.29444 17.08C6.90926 17.43 6.46389 17.7044 5.95833 17.9032C5.45278 18.102 4.91111 18.2009 4.33333 18.2C3.12963 18.2 2.10648 17.7917 1.26389 16.975C0.421296 16.1583 0 15.1667 0 14C0 12.8333 0.421296 11.8417 1.26389 11.025C2.10648 10.2083 3.12963 9.8 4.33333 9.8C4.91111 9.8 5.45278 9.8994 5.95833 10.0982C6.46389 10.297 6.90926 10.5709 7.29444 10.92L17.4417 5.18C17.3935 5.01667 17.3637 4.8594 17.3521 4.7082C17.3406 4.557 17.3343 4.3876 17.3333 4.2C17.3333 3.03333 17.7546 2.04167 18.5972 1.225C19.4398 0.408333 20.463 0 21.6667 0C22.8704 0 23.8935 0.408333 24.7361 1.225C25.5787 2.04167 26 3.03333 26 4.2C26 5.36667 25.5787 6.35833 24.7361 7.175C23.8935 7.99167 22.8704 8.4 21.6667 8.4C21.0889 8.4 20.5472 8.3006 20.0417 8.1018C19.5361 7.903 19.0907 7.62907 18.7056 7.28L8.55833 13.02C8.60648 13.1833 8.63681 13.3411 8.64933 13.4932C8.66185 13.6453 8.66763 13.8143 8.66667 14C8.6657 14.1857 8.65993 14.3551 8.64933 14.5082C8.63874 14.6613 8.60841 14.8185 8.55833 14.98L18.7056 20.72C19.0907 20.37 19.5361 20.0961 20.0417 19.8982C20.5472 19.7003 21.0889 19.6009 21.6667 19.6C22.8704 19.6 23.8935 20.0083 24.7361 20.825C25.5787 21.6417 26 22.6333 26 23.8C26 24.9667 25.5787 25.9583 24.7361 26.775C23.8935 27.5917 22.8704 28 21.6667 28Z" fill="white"/>
</svg>
