<svg width="28" height="26" viewBox="0 0 28 26" fill="none" xmlns="http://www.w3.org/2000/svg">
<path d="M19.6 7.22222V2.88889H8.4V7.22222H5.6V0H22.4V7.22222H19.6ZM22.4 13.7222C22.7967 13.7222 23.1294 13.5836 23.3982 13.3062C23.667 13.0289 23.8009 12.6861 23.8 12.2778C23.7991 11.8695 23.6647 11.5267 23.3968 11.2493C23.1289 10.972 22.7967 10.8333 22.4 10.8333C22.0033 10.8333 21.6711 10.972 21.4032 11.2493C21.1353 11.5267 21.0009 11.8695 21 12.2778C20.9991 12.6861 21.1335 13.0294 21.4032 13.3077C21.6729 13.586 22.0052 13.7241 22.4 13.7222ZM19.6 23.1111V17.3333H8.4V23.1111H19.6ZM22.4 26H5.6V20.2222H0V11.5556C0 10.3278 0.408333 9.29885 1.225 8.46878C2.04167 7.6387 3.03333 7.22319 4.2 7.22222H23.8C24.99 7.22222 25.9877 7.63774 26.7932 8.46878C27.5987 9.29981 28.0009 10.3287 28 11.5556V20.2222H22.4V26ZM25.2 17.3333V11.5556C25.2 11.1463 25.0656 10.8035 24.7968 10.5271C24.528 10.2507 24.1957 10.1121 23.8 10.1111H4.2C3.80333 10.1111 3.47107 10.2498 3.2032 10.5271C2.93533 10.8044 2.80093 11.1473 2.8 11.5556V17.3333H5.6V14.4444H22.4V17.3333H25.2Z" fill="white"/>
</svg>
