<svg width="20" height="25" viewBox="0 0 20 25" fill="none" xmlns="http://www.w3.org/2000/svg">
<path d="M17.5 0H2.5C1.12125 0 0 1.12125 0 2.5V23.75C0 24.0815 0.131696 24.3995 0.366117 24.6339C0.600537 24.8683 0.918479 25 1.25 25H18.75C19.0815 25 19.3995 24.8683 19.6339 24.6339C19.8683 24.3995 20 24.0815 20 23.75V2.5C20 1.12125 18.8787 0 17.5 0ZM17.5 22.5H2.5V2.5H17.5V22.5Z" fill="#333333"/>
<path d="M5 5H8.75V7.5H5V5ZM11.25 5H15V7.5H11.25V5ZM5 10H8.75V12.5H5V10ZM11.25 10.0388H15V12.5H11.25V10.0388ZM5 15H8.75V17.5H5V15ZM11.25 15H15V17.5H11.25V15Z" fill="#333333"/>
</svg>
