<svg width="23" height="23" viewBox="0 0 23 23" fill="none" xmlns="http://www.w3.org/2000/svg">
<path d="M2.43667 2.26386H7.51893L9.15679 6.35918L6.52511 8.11367C6.37014 8.21707 6.24308 8.35713 6.15521 8.52141C6.06734 8.6857 6.02139 8.86913 6.02141 9.05544C6.02481 9.16184 6.02141 9.05657 6.02141 9.05657V9.08034C6.02198 9.13096 6.02425 9.18155 6.02821 9.23202C6.03424 9.32559 6.04745 9.4501 6.06782 9.60555C6.11197 9.91117 6.19686 10.3323 6.36212 10.828C6.6949 11.8241 7.34688 13.1134 8.61687 14.3834C9.88687 15.6535 11.1761 16.3054 12.1711 16.6382C12.668 16.8035 13.0879 16.8873 13.3958 16.9325C13.5694 16.9578 13.7444 16.9729 13.9199 16.9778L13.9346 16.9789H13.9436C13.9436 16.9789 14.0704 16.9722 13.9448 16.9789C14.1549 16.9788 14.3609 16.9202 14.5396 16.8097C14.7183 16.6991 14.8627 16.541 14.9567 16.353L15.7151 14.8362L20.7362 15.6738V20.5638C18.3467 20.909 11.8926 21.2497 6.82167 16.1787C1.75073 11.1076 2.09031 4.65223 2.43667 2.26386ZM8.36786 9.60555L10.4132 8.24271C10.8453 7.95449 11.1652 7.52644 11.3191 7.03037C11.4731 6.5343 11.4517 6.00038 11.2587 5.51816L9.62088 1.42284C9.4528 1.00278 9.16272 0.642726 8.78806 0.389114C8.4134 0.135502 7.97135 -3.03283e-05 7.51893 5.09054e-09H2.37781C1.34891 5.09054e-09 0.381129 0.714248 0.212475 1.83033C-0.172373 4.36812 -0.694181 11.8638 5.22116 17.7792C11.1365 23.6947 18.632 23.1717 21.1697 22.788C22.2858 22.6182 23 21.6515 23 20.6226V15.6738C23.0001 15.1379 22.81 14.6194 22.4637 14.2104C22.1173 13.8015 21.6372 13.5287 21.1086 13.4405L16.0875 12.604C15.6099 12.5243 15.1194 12.5998 14.6879 12.8194C14.2564 13.0391 13.9067 13.3912 13.6901 13.8243L13.2984 14.6087C13.16 14.5743 13.023 14.5346 12.8876 14.4898C12.1858 14.2567 11.2112 13.7767 10.2174 12.7829C9.22358 11.789 8.74365 10.8145 8.51048 10.1115C8.45551 9.94515 8.40829 9.77631 8.36899 9.60555H8.36786Z" fill="#333333"/>
</svg>
