<svg width="100" height="100" viewBox="0 0 100 100" fill="none" xmlns="http://www.w3.org/2000/svg">
<circle cx="50" cy="50" r="50" fill="white" fill-opacity="0.7"/>
<g clip-path="url(#clip0_1033_572)">
<path d="M48.89 67.77C43.1 67.77 37.48 64.86 34.1 59.69H42.46V56.46H29.61V69.38H32.82V63.4C36.84 68.25 42.62 71 48.89 71V67.77Z" fill="#9B0000"/>
<path d="M73 61.3097V58.0796H69.62C69.46 57.1096 68.98 56.1396 68.5 55.1696L70.91 52.7496L68.66 50.4896L66.25 52.9096C65.45 52.4296 64.48 51.9396 63.36 51.7796V48.3896H60.15V51.7796C59.19 51.9396 58.22 52.4296 57.26 52.9096L54.85 50.4896L52.6 52.7496L55 55.1696C54.52 55.9796 54.04 56.9496 53.88 58.0796H50.5V61.3097H53.88C54.04 62.2797 54.52 63.2497 55 64.2197L52.59 66.6396L54.84 68.8997L57.25 66.4796C58.05 66.9596 59.02 67.4496 60.14 67.6096V70.9996H63.35V67.6096C64.31 67.4496 65.28 66.9596 66.24 66.4796L68.65 68.8997L70.9 66.6396L68.49 64.2197C68.97 63.4096 69.45 62.4397 69.61 61.3097H73ZM61.75 64.5396C59.02 64.5396 56.93 62.4396 56.93 59.6896C56.93 56.9396 59.02 54.8396 61.75 54.8396C64.48 54.8396 66.57 56.9396 66.57 59.6896C66.57 62.4396 64.48 64.5396 61.75 64.5396Z" fill="black"/>
<path d="M55.32 40.31H63.68C58.38 32.07 47.45 29.81 39.25 35.14C34.27 38.37 31.21 44.02 31.21 50H28C28 38.37 37.32 29 48.89 29C55.16 29 60.94 31.75 64.96 36.59V30.62H68.17V43.54H55.32V40.31Z" fill="#9B0000"/>
</g>
<defs>
<clipPath id="clip0_1033_572">
<rect width="45" height="42" fill="white" transform="translate(28 29)"/>
</clipPath>
</defs>
</svg>
