<svg width="100" height="100" viewBox="0 0 100 100" fill="none" xmlns="http://www.w3.org/2000/svg">
<circle cx="50" cy="50" r="50" fill="white" fill-opacity="0.7"/>
<path d="M51.1082 31.375C51.1082 32.5353 50.6597 33.6481 49.8614 34.4686C49.0631 35.2891 47.9804 35.75 46.8514 35.75C45.7225 35.75 44.6397 35.2891 43.8414 34.4686C43.0431 33.6481 42.5947 32.5353 42.5947 31.375C42.5947 30.2147 43.0431 29.1019 43.8414 28.2814C44.6397 27.4609 45.7225 27 46.8514 27C47.9804 27 49.0631 27.4609 49.8614 28.2814C50.6597 29.1019 51.1082 30.2147 51.1082 31.375Z" fill="#333333"/>
<path fill-rule="evenodd" clip-rule="evenodd" d="M30.4324 39.835C30.0627 40.0544 29.7557 40.37 29.5422 40.7501C29.3287 41.1301 29.2163 41.5612 29.2163 42C29.2163 42.4388 29.3287 42.8699 29.5422 43.2499C29.7557 43.63 30.0627 43.9456 30.4324 44.165V59.7138C29.721 59.9723 29.105 60.4512 28.6693 61.0845C28.2337 61.7178 27.9999 62.4744 28 63.25V70.75H30.4324V65.75H32.8649V70.75H35.2973V63.25C35.2977 62.4742 35.064 61.7173 34.6283 61.0838C34.1927 60.4502 33.5766 59.9711 32.8649 59.7125V44.5H40.1622V69.5C40.1622 70.163 40.4185 70.7989 40.8747 71.2678C41.3308 71.7366 41.9495 72 42.5947 72C43.2398 72 43.8585 71.7366 44.3146 71.2678C44.7708 70.7989 45.0271 70.163 45.0271 69.5V58.25H48.6758V69.5C48.6758 70.163 48.932 70.7989 49.3882 71.2678C49.8444 71.7366 50.4631 72 51.1082 72C51.7533 72 52.372 71.7366 52.8282 71.2678C53.2844 70.7989 53.5406 70.163 53.5406 69.5V54.3962C55.3407 54.0778 56.9593 53.0774 58.0767 51.5924C59.1942 50.1074 59.7294 48.2458 59.5766 46.3751C59.4239 44.5044 58.5943 42.7605 57.2517 41.4877C55.9091 40.2149 54.151 39.5057 52.3244 39.5H32.8649V35.75H30.4324V39.835ZM55.9731 47C55.9731 46.337 55.7168 45.7011 55.2606 45.2322C54.8045 44.7634 54.1858 44.5 53.5406 44.5V49.5C54.1858 49.5 54.8045 49.2366 55.2606 48.7678C55.7168 48.2989 55.9731 47.663 55.9731 47Z" fill="#333333"/>
<path d="M66.8143 41.4937C66.8831 41.6532 66.9188 41.8256 66.9189 42V70.75C66.9189 71.0815 66.7908 71.3995 66.5627 71.6339C66.3346 71.8683 66.0252 72 65.7027 72C65.3801 72 65.0708 71.8683 64.8427 71.6339C64.6146 71.3995 64.4864 71.0815 64.4864 70.75V58.3188C64.4852 58.9675 64.4378 59.4187 64.4378 59.4187C64.4378 59.4187 60.8767 59.91 59.472 58.4812C58.0685 57.0525 58.454 53.3313 58.454 53.3313C58.454 53.3313 62.0151 52.84 63.4198 54.2688C64.3174 55.1813 64.4828 57.0312 64.4864 58.2475V42C64.4864 41.82 64.5229 41.6475 64.591 41.4937C63.7227 40.5037 62.6621 39.0113 62.6621 37.625C62.6621 35.2787 65.7027 32.625 65.7027 32.625C65.7027 32.625 68.7432 35.2787 68.7432 37.625C68.7432 39.0113 67.6827 40.5037 66.8143 41.4937Z" fill="#9B0000"/>
<path d="M67.9854 63.0191C69.3901 61.5916 72.9512 62.0816 72.9512 62.0816C72.9512 62.0816 73.3368 65.8028 71.9333 67.2316C70.5285 68.6591 66.9674 68.1691 66.9674 68.1691C66.9674 68.1691 66.5819 64.4478 67.9854 63.0191ZM72.9512 44.5816C72.9512 44.5816 69.3901 44.0903 67.9854 45.5191C66.5819 46.9478 66.9674 50.6691 66.9674 50.6691C66.9674 50.6691 70.5285 51.1603 71.9333 49.7316C73.3368 48.3028 72.9512 44.5816 72.9512 44.5816Z" fill="#9B0000"/>
</svg>
