<svg width="100" height="100" viewBox="0 0 100 100" fill="none" xmlns="http://www.w3.org/2000/svg">
<circle cx="50" cy="50" r="50" fill="white" fill-opacity="0.7"/>
<g clip-path="url(#clip0_1033_569)">
<path d="M55.2613 53.9554L57.6744 56.3051L60.2353 53.8086L66.3913 59.7969L66.7688 60.2049C67.6224 61.2328 68.0657 62.5545 68 63.8762C67.9344 65.2142 67.3598 66.4706 66.3913 67.4007C65.4227 68.3471 64.1259 68.9018 62.7634 68.9671C61.4008 69.0324 60.0547 68.6081 58.9877 67.776L58.5609 67.4007L52.4049 61.4123L54.9658 58.9158L52.5691 56.5662" fill="black"/>
<path d="M44.591 48.8318L44.7387 48.9623L44.591 48.8318ZM44.7223 48.9623L33.6088 59.7968C32.591 60.8084 32 62.1791 32 63.5987C32 65.0182 32.591 66.4052 33.6252 67.4168L34.052 67.7921C35.119 68.6406 36.4651 69.0649 37.8276 68.9996C39.1902 68.9343 40.487 68.3632 41.4555 67.4332L52.5691 56.615L55.2777 53.9716L56.6895 52.5847C57.2148 52.6826 57.7565 52.7315 58.3146 52.7315L58.8071 52.7152C61.2695 52.5847 63.5677 51.5567 65.2586 49.8108C66.9494 48.0812 67.9015 45.7642 67.9015 43.3819C67.9015 40.9833 66.9658 38.6826 65.2586 36.953C63.5677 35.2234 61.2531 34.1791 58.8071 34.0485L58.3146 34.0322C56.9193 34.0322 55.5404 34.3259 54.2763 34.897C53.0123 35.4681 51.896 36.3003 50.9932 37.3446C50.0903 38.3889 49.4337 39.5963 49.0725 40.918C48.7114 42.2234 48.6457 43.6103 48.8755 44.9483L47.4473 46.3189M63.3215 46.1068C62.8783 46.89 62.238 47.559 61.4665 48.0485C60.6949 48.5381 59.8085 48.8481 58.9056 48.946L58.3146 48.9786C57.7401 48.9786 57.1819 48.897 56.6402 48.7339L55.5404 48.4075L54.736 49.207L38.7305 64.7735C38.156 65.3446 37.2531 65.4098 36.5964 64.9856L36.3338 64.7735C36.0219 64.4635 35.8413 64.0392 35.8413 63.5987C35.8413 63.1581 36.0219 62.7339 36.3338 62.4238L52.3228 46.8411L53.1436 46.0579L52.8153 44.9809C52.5527 44.1488 52.5034 43.2513 52.6512 42.4029C52.7989 41.5381 53.1601 40.7222 53.7018 40.0206C54.2435 39.3189 54.933 38.7478 55.7373 38.3562C56.5417 37.9646 57.4282 37.7525 58.3311 37.7525L58.922 37.7851C59.5787 37.8504 60.2189 38.0299 60.8099 38.3073L56.9521 42.0439C56.6074 42.4029 56.4104 42.876 56.4104 43.3656C56.4104 43.8551 56.6238 44.3283 56.9685 44.6709C57.3133 45.0136 57.8057 45.2094 58.3146 45.2257C58.8235 45.2257 59.2996 45.0462 59.6607 44.7036L63.4856 40.967C63.8796 41.7828 64.0766 42.6639 64.0438 43.5614C64.0274 44.4425 63.7811 45.3236 63.3215 46.1068Z" fill="#9B0000"/>
<path d="M47.5951 46.2214L41.357 40.1352L42.933 38.6014L40.9795 37.345L37.1546 34.8485L35.8413 34L32.3447 37.4103L33.2148 38.683L35.7592 42.4196L37.0725 44.3124L38.6484 42.7786L44.87 48.8648" fill="black"/>
<path d="M57.2692 61.8203L60.3561 58.6559L63.3388 61.5306C64.2177 62.3778 64.2392 63.7729 63.3868 64.6467C62.5344 65.5205 61.1308 65.5421 60.2519 64.695L57.2692 61.8203Z" fill="white"/>
</g>
<defs>
<clipPath id="clip0_1033_569">
<rect width="36" height="35" fill="white" transform="translate(32 34)"/>
</clipPath>
</defs>
</svg>
