<svg width="100" height="100" viewBox="0 0 100 100" fill="none" xmlns="http://www.w3.org/2000/svg">
<circle cx="50" cy="50" r="50" fill="white" fill-opacity="0.7"/>
<g clip-path="url(#clip0_1033_571)">
<path d="M34.8768 33L33.85 40.3168C33.406 43.4895 33.7668 46.7547 34.8675 49.613H38.9745V33H34.8768Z" fill="#333333"/>
<path d="M40.3898 33V45.3765H40.621C41.1205 45.3765 41.5183 44.8307 41.5183 44.1648V33H40.3898Z" fill="#333333"/>
<path d="M42.952 33V44.1648C42.952 45.8668 41.916 47.245 40.6303 47.245H40.3898V55.9955H41.5923V49.6038H43.1648C43.1648 49.6038 43.7753 47.9665 44.2563 46.6345C44.6355 45.654 45.394 45.0158 46.2265 45.0158H52.6738C53.8763 45.0158 54.8568 46.3108 54.8568 47.9202V57.716H32L32.851 65.0513H66.5118L67.3535 58.2988L65.6608 33H42.952Z" fill="#333333"/>
<path d="M67.89 35.5068C67.4922 35.5531 67.2055 36.0063 67.2425 36.5243L67.5847 41.6026C67.6125 42.1206 67.964 42.4998 68.3525 42.4628C68.7502 42.4166 69.0277 41.9448 69 41.4361L68.6577 36.3763C68.63 35.8953 68.3155 35.5161 67.9547 35.5161H67.89V35.5068Z" fill="#333333"/>
<path d="M60.9062 43.9146C62.6482 43.9146 64.0605 42.0344 64.0605 39.7151C64.0605 37.3958 62.6482 35.5156 60.9062 35.5156C59.1642 35.5156 57.752 37.3958 57.752 39.7151C57.752 42.0344 59.1642 43.9146 60.9062 43.9146Z" fill="white"/>
<path d="M60.9062 42.0371C61.8717 42.0371 62.6545 40.9976 62.6545 39.7153C62.6545 38.433 61.8717 37.3936 60.9062 37.3936C59.9407 37.3936 59.158 38.433 59.158 39.7153C59.158 40.9976 59.9407 42.0371 60.9062 42.0371Z" fill="#9B0000"/>
<path d="M60.9063 57.3367C63.0468 57.3367 64.782 55.0258 64.782 52.1752C64.782 49.3246 63.0468 47.0137 60.9063 47.0137C58.7658 47.0137 57.0305 49.3246 57.0305 52.1752C57.0305 55.0258 58.7658 57.3367 60.9063 57.3367Z" fill="white"/>
<path d="M60.9063 48.9004C59.5466 48.9004 58.4458 50.3711 58.4458 52.1749C58.4458 53.9879 59.5466 55.4401 60.9063 55.4401C62.2661 55.4401 63.3576 53.9879 63.3576 52.1749C63.3576 50.3619 62.2661 48.9004 60.9063 48.9004Z" fill="#9B0000"/>
<path d="M38.9837 50.9824H37.365V52.8694H38.9837V50.9824Z" fill="#333333"/>
<path d="M66.4932 67.1602H32.851V69.9999H66.4932V67.1602Z" fill="#333333"/>
</g>
<defs>
<clipPath id="clip0_1033_571">
<rect width="37" height="37" fill="white" transform="translate(32 33)"/>
</clipPath>
</defs>
</svg>
