<svg width="23" height="18" viewBox="0 0 23 18" fill="none" xmlns="http://www.w3.org/2000/svg">
<path d="M0 2.25C0 1.65326 0.242321 1.08097 0.673654 0.65901C1.10499 0.237053 1.69 0 2.3 0H20.7C21.31 0 21.895 0.237053 22.3263 0.65901C22.7577 1.08097 23 1.65326 23 2.25V15.75C23 16.3467 22.7577 16.919 22.3263 17.341C21.895 17.7629 21.31 18 20.7 18H2.3C1.69 18 1.10499 17.7629 0.673654 17.341C0.242321 16.919 0 16.3467 0 15.75V2.25ZM4.04685 2.25L11.5 8.62987L18.9531 2.25H4.04685ZM20.7 3.74513L12.2579 10.9721C12.0481 11.1519 11.7788 11.251 11.5 11.251C11.2212 11.251 10.9519 11.1519 10.7421 10.9721L2.3 3.74513V15.75H20.7V3.74513Z" fill="#333333"/>
</svg>
