<svg width="27" height="28" viewBox="0 0 27 28" fill="none" xmlns="http://www.w3.org/2000/svg">
<path d="M26.3405 11.8554L15.0905 0.655553C14.6686 0.235795 14.0965 0 13.5 0C12.9035 0 12.3314 0.235795 11.9095 0.655553L0.659544 11.8554C0.449598 12.0629 0.283174 12.3098 0.16995 12.5819C0.0567261 12.8539 -0.00103873 13.1457 1.41377e-05 13.4402V26.88C1.41377e-05 27.1771 0.118541 27.4619 0.329519 27.672C0.540497 27.882 0.826645 28 1.12501 28H10.125C10.4234 28 10.7095 27.882 10.9205 27.672C11.1315 27.4619 11.25 27.1771 11.25 26.88V19.0401H15.75V26.88C15.75 27.1771 15.8685 27.4619 16.0795 27.672C16.2905 27.882 16.5766 28 16.875 28H25.875C26.1734 28 26.4595 27.882 26.6705 27.672C26.8815 27.4619 27 27.1771 27 26.88V13.4402C27.001 13.1457 26.9433 12.8539 26.83 12.5819C26.7168 12.3098 26.5504 12.0629 26.3405 11.8554ZM24.75 25.76H18V17.9201C18 17.6231 17.8815 17.3382 17.6705 17.1282C17.4595 16.9181 17.1734 16.8001 16.875 16.8001H10.125C9.82663 16.8001 9.54049 16.9181 9.32951 17.1282C9.11853 17.3382 9 17.6231 9 17.9201V25.76H2.25001V13.4402L13.5 2.24033L24.75 13.4402V25.76Z" fill="white"/>
</svg>
