<svg width="23" height="23" viewBox="0 0 23 23" fill="none" xmlns="http://www.w3.org/2000/svg">
<path d="M22 22L1 1V22H22Z" stroke="#333333" stroke-width="2" stroke-linecap="round" stroke-linejoin="round"/>
<path d="M11.4211 17.0244H5.97479V11.5781L11.4211 17.0244Z" stroke="#333333" stroke-width="0.5"/>
<path d="M11.4211 17.0244H5.97479V11.5781L11.4211 17.0244Z" stroke="#333333" stroke-width="0.5"/>
<path d="M11.4211 17.0244H5.97479V11.5781L11.4211 17.0244Z" stroke="#333333" stroke-width="0.5"/>
<path d="M11.4211 17.0244H5.97479V11.5781L11.4211 17.0244Z" stroke="#333333" stroke-width="0.5"/>
<path d="M5.72479 17.2746H12.0248L5.72479 10.9746V17.2746Z" stroke="#333333" stroke-width="2" stroke-linecap="round" stroke-linejoin="round"/>
<path d="M5.72479 17.2746H12.0248L5.72479 10.9746V17.2746Z" stroke="#333333" stroke-width="2" stroke-linecap="round" stroke-linejoin="round"/>
<path d="M5.72479 17.2746H12.0248L5.72479 10.9746V17.2746Z" stroke="#333333" stroke-width="2" stroke-linecap="round" stroke-linejoin="round"/>
<path d="M5.72479 17.2746H12.0248L5.72479 10.9746V17.2746Z" stroke="#333333" stroke-width="2" stroke-linecap="round" stroke-linejoin="round"/>
<path d="M14.65 21.9996V20.4246M11.5 21.9996V20.4246M8.35 21.9996V20.4246M5.2 21.9996V20.4246M1 17.7996H2.575M1 14.6496H2.575M1 11.4996H2.575M1 8.34961H2.575" stroke="#333333" stroke-width="2" stroke-linecap="round" stroke-linejoin="round"/>
</svg>
