<svg width="16" height="21" viewBox="0 0 16 21" fill="none" xmlns="http://www.w3.org/2000/svg">
<path d="M7.9425 0.88375L7.5 0.44125L7.9425 0L8.385 0.44125L7.9425 0.88375ZM8.5675 19.6337C8.5675 19.7995 8.50165 19.9585 8.38444 20.0757C8.26723 20.1929 8.10826 20.2588 7.9425 20.2588C7.77674 20.2588 7.61777 20.1929 7.50056 20.0757C7.38335 19.9585 7.3175 19.7995 7.3175 19.6337H8.5675ZM0 7.94125L7.5 0.44125L8.385 1.32625L0.885 8.82625L0 7.94125ZM8.385 0.44125L15.885 7.94125L15 8.82625L7.5 1.32625L8.385 0.44125ZM8.5675 0.88375V19.6337H7.3175V0.88375H8.5675Z" fill="white"/>
</svg>
