<svg width="16" height="16" viewBox="0 0 16 16" fill="none" xmlns="http://www.w3.org/2000/svg">
<path d="M14.7027 16L9.8979 11.2432C9.41742 11.6276 8.86486 11.9319 8.24024 12.1562C7.61562 12.3804 6.95095 12.4925 6.24625 12.4925C4.5005 12.4925 3.02318 11.8877 1.81429 10.6782C0.605406 9.46867 0.000641149 7.99135 5.08445e-07 6.24625C-0.000640132 4.50114 0.604124 3.02382 1.81429 1.81429C3.02446 0.604765 4.50178 0 6.24625 0C7.99071 0 9.46835 0.604765 10.6792 1.81429C11.89 3.02382 12.4944 4.50114 12.4925 6.24625C12.4925 6.95095 12.3804 7.61562 12.1562 8.24024C11.9319 8.86486 11.6276 9.41742 11.2432 9.8979L16 14.7027L14.7027 16ZM6.24625 10.5706C7.44745 10.5706 8.46863 10.1503 9.30979 9.30979C10.151 8.46927 10.5712 7.44809 10.5706 6.24625C10.5699 5.0444 10.1497 4.02354 9.30979 3.18366C8.46991 2.34378 7.44873 1.9232 6.24625 1.92192C5.04376 1.92064 4.0229 2.34122 3.18366 3.18366C2.34442 4.02611 1.92384 5.04697 1.92192 6.24625C1.92 7.44553 2.34058 8.46671 3.18366 9.30979C4.02675 10.1529 5.04761 10.5731 6.24625 10.5706Z" fill="black"/>
</svg>
