<svg width="44" height="44" viewBox="0 0 44 44" fill="none" xmlns="http://www.w3.org/2000/svg">
<path d="M43.125 21.5625C43.125 21.8111 43.0262 22.0496 42.8504 22.2254C42.6746 22.4012 42.4361 22.5 42.1875 22.5H22.5V42.1875C22.5 42.4361 22.4012 42.6746 22.2254 42.8504C22.0496 43.0262 21.8111 43.125 21.5625 43.125C21.3139 43.125 21.0754 43.0262 20.8996 42.8504C20.7238 42.6746 20.625 42.4361 20.625 42.1875V22.5H0.9375C0.68886 22.5 0.450403 22.4012 0.274588 22.2254C0.0987722 22.0496 0 21.8111 0 21.5625C0 21.3139 0.0987722 21.0754 0.274588 20.8996C0.450403 20.7238 0.68886 20.625 0.9375 20.625H20.625V0.9375C20.625 0.68886 20.7238 0.450403 20.8996 0.274588C21.0754 0.0987722 21.3139 0 21.5625 0C21.8111 0 22.0496 0.0987722 22.2254 0.274588C22.4012 0.450403 22.5 0.68886 22.5 0.9375V20.625H42.1875C42.4361 20.625 42.6746 20.7238 42.8504 20.8996C43.0262 21.0754 43.125 21.3139 43.125 21.5625Z" fill="white"/>
</svg>
